<?xml version="1.0" standalone="no"?>
<!DOCTYPE svg PUBLIC "-//W3C//DTD SVG 20010904//EN"
 "http://www.w3.org/TR/2001/REC-SVG-20010904/DTD/svg10.dtd">
<svg version="1.0" xmlns="http://www.w3.org/2000/svg"
 width="340.000000pt" height="339.000000pt" viewBox="0 0 340.000000 339.000000"
 preserveAspectRatio="xMidYMid meet">

<g transform="translate(0.000000,339.000000) scale(0.100000,-0.100000)"
fill="#000000" stroke="none">
<path d="M1136 2971 c-3 -5 10 -18 29 -29 19 -12 37 -32 40 -45 11 -43 -162
-994 -191 -1049 -9 -18 -33 -38 -62 -51 l-47 -22 449 -3 c247 -1 451 -1 453 1
3 4 73 302 73 313 0 22 -31 -14 -96 -110 -52 -76 -90 -122 -117 -140 -40 -26
-44 -26 -219 -26 l-177 0 4 28 c29 154 95 526 95 529 0 1 47 3 104 3 126 0
146 -11 171 -95 26 -90 38 -72 70 103 15 86 30 165 33 175 9 36 -19 15 -58
-44 -60 -88 -83 -99 -208 -99 l-104 0 6 28 c3 15 24 124 46 242 22 118 43 225
45 238 5 22 8 22 148 22 151 0 176 -6 208 -50 10 -14 29 -71 41 -127 12 -59
26 -103 33 -103 7 0 18 46 29 123 9 67 20 139 23 160 l6 37 -411 0 c-233 0
-413 -4 -416 -9z"/>
<path d="M1750 2331 c0 -5 17 -18 37 -28 20 -11 45 -31 56 -44 29 -40 247
-580 239 -594 -4 -6 -49 -64 -101 -128 l-95 -116 -41 38 c-86 79 -193 100
-512 101 -183 0 -213 -2 -213 -15 0 -8 6 -15 13 -15 26 0 57 -45 57 -81 0 -69
-164 -939 -185 -978 -8 -16 -32 -37 -55 -48 -21 -10 -40 -21 -40 -25 0 -5 99
-8 220 -8 121 0 220 4 220 9 0 5 -14 14 -30 21 -59 25 -62 56 -22 275 l27 150
120 6 c233 11 377 84 455 230 40 76 51 174 27 251 l-15 48 96 120 c53 66 99
117 103 113 4 -5 42 -93 84 -197 68 -168 75 -191 65 -216 -6 -15 -22 -33 -36
-40 -13 -8 -24 -17 -24 -22 0 -4 104 -8 230 -8 143 0 230 4 230 10 0 5 -17 18
-37 29 -21 10 -48 30 -60 43 -17 18 -253 572 -253 594 0 2 81 106 181 230 174
218 183 227 245 256 35 16 64 34 64 39 0 5 -58 9 -130 9 -127 0 -160 -9 -107
-29 30 -12 51 -37 44 -55 -7 -19 -309 -396 -316 -396 -4 0 -41 89 -85 197 -56
142 -76 201 -69 213 5 8 26 23 46 33 20 10 37 23 37 28 0 5 -99 9 -235 9 -133
0 -235 -4 -235 -9z m-174 -830 c86 -39 132 -151 120 -294 -16 -197 -115 -307
-291 -324 -58 -5 -65 -4 -65 12 0 10 25 150 55 312 30 162 55 299 55 304 0 16
84 9 126 -10z"/>
<path d="M1570 1140 c0 -5 5 -10 10 -10 6 0 10 5 10 10 0 6 -4 10 -10 10 -5 0
-10 -4 -10 -10z"/>
</g>
</svg>
